<?xml version="1.0" encoding="UTF-8" standalone="no"?>
<svg width="62px" height="62px" viewBox="0 0 62 62" version="1.1" xmlns="http://www.w3.org/2000/svg" xmlns:xlink="http://www.w3.org/1999/xlink">
    <!-- Generator: Sketch 41.2 (35397) - http://www.bohemiancoding.com/sketch -->
    <title>Page 1</title>
    <desc>Created with Sketch.</desc>
    <defs></defs>
    <g id="Page-1" stroke="none" stroke-width="1" fill="none" fill-rule="evenodd">
        <g id="子页文章" transform="translate(-869.000000, -2744.000000)" stroke="#979797" stroke-width="2">
            <path d="M930,2800.71429 C930,2803.08206 928.082057,2805 925.714286,2805 L917.142857,2805 C914.775086,2805 912.857143,2803.08206 912.857143,2800.71429 L912.857143,2792.14286 C912.857143,2789.77509 914.777143,2787.85714 917.142857,2787.85714 L925.714286,2787.85714 C928.082057,2787.85714 930,2789.77509 930,2792.14286 L930,2800.71429 Z M908.571429,2800.71429 C908.571429,2803.08206 906.653486,2805 904.285714,2805 L895.714286,2805 C893.346514,2805 891.428571,2803.08206 891.428571,2800.71429 L891.428571,2792.14286 C891.428571,2789.77509 893.346514,2787.85714 895.714286,2787.85714 L904.285714,2787.85714 C906.653486,2787.85714 908.571429,2789.77509 908.571429,2792.14286 L908.571429,2800.71429 Z M887.142857,2800.71429 C887.142857,2803.08206 885.224914,2805 882.857143,2805 L874.285714,2805 C871.917943,2805 870,2803.08206 870,2800.71429 L870,2792.14286 C870,2789.77509 871.92,2787.85714 874.285714,2787.85714 L882.857143,2787.85714 C885.224914,2787.85714 887.142857,2789.77509 887.142857,2792.14286 L887.142857,2800.71429 Z M930,2779.28571 C930,2781.65349 928.082057,2783.57143 925.714286,2783.57143 L917.142857,2783.57143 C914.775086,2783.57143 912.857143,2781.65349 912.857143,2779.28571 L912.857143,2770.71429 C912.857143,2768.34651 914.777143,2766.42857 917.142857,2766.42857 L925.714286,2766.42857 C928.082057,2766.42857 930,2768.34651 930,2770.71429 L930,2779.28571 Z M908.571429,2779.28571 C908.571429,2781.65349 906.653486,2783.57143 904.285714,2783.57143 L895.714286,2783.57143 C893.346514,2783.57143 891.428571,2781.65349 891.428571,2779.28571 L891.428571,2770.71429 C891.428571,2768.34651 893.346514,2766.42857 895.714286,2766.42857 L904.285714,2766.42857 C906.653486,2766.42857 908.571429,2768.34651 908.571429,2770.71429 L908.571429,2779.28571 Z M887.142857,2779.28571 C887.142857,2781.65349 885.224914,2783.57143 882.857143,2783.57143 L874.285714,2783.57143 C871.917943,2783.57143 870,2781.65349 870,2779.28571 L870,2770.71429 C870,2768.34651 871.92,2766.42857 874.285714,2766.42857 L882.857143,2766.42857 C885.224914,2766.42857 887.142857,2768.34651 887.142857,2770.71429 L887.142857,2779.28571 Z M930,2757.85714 C930,2760.22491 928.082057,2762.14286 925.714286,2762.14286 L917.142857,2762.14286 C914.775086,2762.14286 912.857143,2760.22491 912.857143,2757.85714 L912.857143,2749.28571 C912.857143,2746.91794 914.777143,2745 917.142857,2745 L925.714286,2745 C928.082057,2745 930,2746.91794 930,2749.28571 L930,2757.85714 Z M908.571429,2757.85714 C908.571429,2760.22491 906.653486,2762.14286 904.285714,2762.14286 L895.714286,2762.14286 C893.346514,2762.14286 891.428571,2760.22491 891.428571,2757.85714 L891.428571,2749.28571 C891.428571,2746.91794 893.346514,2745 895.714286,2745 L904.285714,2745 C906.653486,2745 908.571429,2746.91794 908.571429,2749.28571 L908.571429,2757.85714 Z M887.142857,2757.85714 C887.142857,2760.22491 885.224914,2762.14286 882.857143,2762.14286 L874.285714,2762.14286 C871.917943,2762.14286 870,2760.22491 870,2757.85714 L870,2749.28571 C870,2746.91794 871.92,2745 874.285714,2745 L882.857143,2745 C885.224914,2745 887.142857,2746.91794 887.142857,2749.28571 L887.142857,2757.85714 Z" id="Page-1"></path>
        </g>
    </g>
</svg>