<?xml version="1.0" encoding="UTF-8" standalone="no"?>
<svg width="41px" height="41px" viewBox="0 0 41 41" version="1.1" xmlns="http://www.w3.org/2000/svg" xmlns:xlink="http://www.w3.org/1999/xlink">
    <!-- Generator: Sketch 41.2 (35397) - http://www.bohemiancoding.com/sketch -->
    <title>ax 2</title>
    <desc>Created with Sketch.</desc>
    <defs></defs>
    <g id="Page-1" stroke="none" stroke-width="1" fill="none" fill-rule="evenodd">
        <g id="ax" fill="#F9FF00">
            <g id="Group">
                <polygon id="Shape" points="24 19 18.7 29.2 19.6 29.7 24.5 20.2 24.5 20.2 25.2 19 25.2 19 31 7.8 30.1 7.3 24.6 17.8 19.8 6.3 8.4 29.9 13.7 29.9 18.8 18.7 19.8 20.7 20.7 20.2 18.8 16.2 13.1 28.9 10.1 28.9 19.7 8.8"></polygon>
                <polygon id="Shape" points="28.5 29.6 29.5 29.2 26.3 21.6 25.7 22.9"></polygon>
                <path d="M20.7,0.2 C9.7,0.2 0.7,9.2 0.7,20.2 C0.7,29.1 6.5,36.6 14.5,39.2 L14.6,39.1 L14.6,39.1 L18.3,32.6 L17.4,32.1 L14.1,38 C6.9,35.3 1.8,28.4 1.8,20.2 C1.8,9.7 10.3,1.2 20.8,1.2 C31.3,1.2 39.8,9.7 39.8,20.2 C39.8,30.7 31.3,39.2 20.8,39.2 C19.5,39.2 18.3,39.1 17.1,38.8 L16.6,39.7 C18,40 19.4,40.2 20.8,40.2 C31.8,40.2 40.8,31.2 40.8,20.2 C40.7,9.2 31.7,0.2 20.7,0.2 Z" id="Shape"></path>
            </g>
        </g>
    </g>
</svg>