<?xml version="1.0" encoding="utf-8"?>
<!-- Generator: Adobe Illustrator 20.0.0, SVG Export Plug-In . SVG Version: 6.00 Build 0)  -->
<svg version="1.1" id="图层_1" xmlns="http://www.w3.org/2000/svg" xmlns:xlink="http://www.w3.org/1999/xlink" x="0px" y="0px"
	 viewBox="0 0 40 40" style="enable-background:new 0 0 40 40;" xml:space="preserve">
<style type="text/css">
	.st0{fill:#373D41;}
</style>
<g>
	<polygon class="st0" points="23,19 17.7,29.2 18.6,29.7 23.5,20.2 23.5,20.2 24.2,19 24.2,19 30,7.8 29.1,7.3 23.6,17.8 18.8,6.3 
		7.4,29.9 12.7,29.9 17.8,18.7 18.8,20.7 19.7,20.2 17.8,16.2 12.1,28.9 9.1,28.9 18.7,8.8 	"/>
	<polygon class="st0" points="27.5,29.6 28.5,29.2 25.3,21.6 24.7,22.9 	"/>
	<path class="st0" d="M19.7,0.2c-11,0-20,9-20,20c0,8.9,5.8,16.4,13.8,19l0.1-0.1l0,0l3.7-6.5l-0.9-0.5L13.1,38
		C5.9,35.3,0.8,28.4,0.8,20.2c0-10.5,8.5-19,19-19s19,8.5,19,19c0,10.5-8.5,19-19,19c-1.3,0-2.5-0.1-3.7-0.4l-0.5,0.9
		c1.4,0.3,2.8,0.5,4.2,0.5c11,0,20-9,20-20C39.7,9.2,30.7,0.2,19.7,0.2z"/>
</g>
</svg>
