<?xml version="1.0" standalone="no"?><!DOCTYPE svg PUBLIC "-//W3C//DTD SVG 1.1//EN" "http://www.w3.org/Graphics/SVG/1.1/DTD/svg11.dtd"><svg t="1624584446371" class="icon" viewBox="0 0 1024 1024" version="1.1" xmlns="http://www.w3.org/2000/svg" p-id="8172" xmlns:xlink="http://www.w3.org/1999/xlink" width="200" height="200"><defs><style type="text/css"></style></defs><path d="M512 512m-512 0a512 512 0 1 0 1024 0 512 512 0 1 0-1024 0Z" fill="#1b4262" p-id="8173" data-spm-anchor-id="a313x.7781069.0.i2" class="selected"></path><path d="M832 537.6h-224v-35.2h-188.8v35.2H192v-182.4c0-41.6 35.2-73.6 76.8-73.6h112V243.2c0-28.8 25.6-54.4 57.6-54.4h150.4c32 0 57.6 25.6 57.6 54.4v35.2h112c41.6 0 76.8 32 76.8 73.6l-3.2 185.6z m0 38.4v182.4c0 41.6-35.2 73.6-76.8 73.6H268.8C227.2 832 192 800 192 755.2V576h227.2v35.2H608V576h224z m-224-294.4V243.2c0-9.6-9.6-19.2-19.2-19.2h-150.4c-9.6 0-19.2 9.6-19.2 19.2v35.2l188.8 3.2z" fill="#FFFFFF" p-id="8174"></path></svg>