<?xml version="1.0" standalone="no"?><!DOCTYPE svg PUBLIC "-//W3C//DTD SVG 1.1//EN" "http://www.w3.org/Graphics/SVG/1.1/DTD/svg11.dtd"><svg t="1624585471019" class="icon" viewBox="0 0 1024 1024" version="1.1" xmlns="http://www.w3.org/2000/svg" p-id="15273" xmlns:xlink="http://www.w3.org/1999/xlink" width="200" height="200"><defs><style type="text/css"></style></defs><path d="M406.2 638.5c0 15 49.1 27.1 109.6 27.1 60.5 0 109.6-12.1 109.6-27.1 0-15-49.1-27.1-109.6-27.1C455.3 611.4 406.2 623.5 406.2 638.5z" p-id="15274" fill="#1b4262"></path><path d="M512 16c-273.5 0-496 222.5-496 496s222.5 496 496 496 496-222.5 496-496S785.5 16 512 16zM653.6 650.3c0 0-50.3 35.6-142.8 35.6-92.5 0-126.2-35.6-126.2-35.6L384.6 539.7c0 0 45.7-45.7 133.1-45.7 87.3 0 136 45.7 136 45.7L653.7 650.3zM670.8 525.3c0 0-63-63.5-149.8-63.5-84.8 0-168.7 63.5-168.7 63.5l-47.1-19.4 0 57c7.4 2.5 12.8 9.3 12.8 17.4 0 8.3-5.5 15-13.1 17.5l13.9 61.4-41.1 0 14-61.7c-6.7-2.8-11.5-9.5-11.5-17.2 0-7.6 4.6-14 11.1-16.9L291.3 500.2 223 471.9l301.4-133.8L801 473.6 670.8 525.3z" p-id="15275" data-spm-anchor-id="a313x.7781069.0.i14" fill="#1b4262" class="selected"></path></svg>