<?xml version="1.0" standalone="no"?><!DOCTYPE svg PUBLIC "-//W3C//DTD SVG 1.1//EN" "http://www.w3.org/Graphics/SVG/1.1/DTD/svg11.dtd"><svg t="1624585367488" class="icon" viewBox="0 0 1024 1024" version="1.1" xmlns="http://www.w3.org/2000/svg" p-id="14407" xmlns:xlink="http://www.w3.org/1999/xlink" width="200" height="200"><defs><style type="text/css"></style></defs><path d="M512 0c282.752 0 512 229.248 512 512s-229.248 512-512 512S0 794.752 0 512 229.248 0 512 0z m240.213333 256H270.549333c-8.533333 0-14.250667 5.717333-14.250666 14.250667v398.933333c0 8.576 5.674667 14.293333 14.250666 14.293333h76.928c14.250667 0 22.826667 11.392 22.826667 22.784v37.034667c0 22.784 17.066667 34.218667 37.034667 22.784l131.072-71.253333c11.392-8.533333 25.642667-11.349333 39.893333-11.349334h173.824c8.533333 0 14.250667-5.717333 14.250667-14.250666V270.250667c0-8.533333-5.674667-14.250667-14.250667-14.250667z m-156.757333 256.469333v57.002667H367.488v-57.002667h227.968z m57.002667-142.506666v57.002666h-285.013334V370.005333h285.013334z" p-id="14408" data-spm-anchor-id="a313x.7781069.0.i11" fill="#1b4262" class="selected"></path></svg>